HIERARCHY
ROOT Hips
{
	OFFSET 0.00 0.00 0.00
	CHANNELS 6 Xposition Yposition Zposition Xrotation Yrotation Zrotation
	JOINT Spine
	{
		OFFSET 0.00000 1.72418 2.58627
		CHANNELS 3 Xrotation Yrotation Zrotation
		JOINT Spine1
		{
			OFFSET 0.00000 0.59880 3.39597
			CHANNELS 3 Xrotation Yrotation Zrotation
			JOINT Spine2
			{
				OFFSET 0.00000 0.30055 3.43524
				CHANNELS 3 Xrotation Yrotation Zrotation
				JOINT Spine3
				{
					OFFSET 0.00000 0.00000 3.44836
					CHANNELS 3 Xrotation Yrotation Zrotation
					JOINT Neck
					{
						OFFSET 0.00000 -1.29313 9.05195
						CHANNELS 3 Xrotation Yrotation Zrotation
						JOINT Head
						{
							OFFSET 0.00000 -0.82335 4.66946
							CHANNELS 3 Xrotation Yrotation Zrotation
							End Site
							{
								OFFSET 0.00000 0.00001 5.58203
							}
						}
					}
					JOINT RightShoulder
					{
						OFFSET -1.18828 -1.98046 6.41673
						CHANNELS 3 Xrotation Yrotation Zrotation
						JOINT RightArm
						{
							OFFSET -5.90180 0.00000 0.00000
							CHANNELS 3 Xrotation Yrotation Zrotation
							JOINT RightForeArm
							{
								OFFSET -11.45951 0.00000 0.00000
								CHANNELS 3 Xrotation Yrotation Zrotation
								JOINT RightHand
								{
									OFFSET -10.63451 0.00000 0.00000
									CHANNELS 3 Xrotation Yrotation Zrotation
									JOINT RightHandEnd
									{
										OFFSET -2.86944 0.00000 0.00000
										CHANNELS 3 Xrotation Yrotation Zrotation
										End Site
										{
											OFFSET -2.86944 0.00000 0.00000
										}
									}
									JOINT RightHandThumb1
									{
										OFFSET -1.14778 -1.91296 -0.76518
										CHANNELS 3 Yrotation Xrotation Zrotation
										End Site
										{
											OFFSET -2.77167 -0.74267 0.00000
										}
									}
								}
							}
						}
					}
					JOINT LeftShoulder
					{
						OFFSET 1.18828 -1.98046 6.41673
						CHANNELS 3 Xrotation Yrotation Zrotation
						JOINT LeftArm
						{
							OFFSET 5.90180 0.00000 0.00000
							CHANNELS 3 Xrotation Yrotation Zrotation
							JOINT LeftForeArm
							{
								OFFSET 11.45951 0.00000 0.00000
								CHANNELS 3 Xrotation Yrotation Zrotation
								JOINT LeftHand
								{
									OFFSET 10.63451 0.00000 0.00000
									CHANNELS 3 Xrotation Yrotation Zrotation
									JOINT LeftHandEnd
									{
										OFFSET 2.86944 0.00000 0.00000
										CHANNELS 3 Xrotation Yrotation Zrotation
										End Site
										{
											OFFSET 2.86944 0.00000 0.00000
										}
									}
									JOINT LeftHandThumb1
									{
										OFFSET 1.14778 -1.91296 -0.76518
										CHANNELS 3 Yrotation Xrotation Zrotation
										End Site
										{
											OFFSET 2.77167 -0.74267 0.00000
										}
									}
								}
							}
						}
					}
				}
			}
		}
	}
	JOINT RightUpLeg
	{
		OFFSET -3.52524 0.00000 -1.02984
		CHANNELS 3 Xrotation Yrotation Zrotation
		JOINT RightLeg
		{
			OFFSET 0.00001 0.00000 -17.80965
			CHANNELS 3 Xrotation Yrotation Zrotation
			JOINT RightFoot
			{
				OFFSET 0.00001 0.00000 -17.00908
				CHANNELS 3 Xrotation Yrotation Zrotation
				JOINT RightToeBase
				{
					OFFSET 0.00000 -5.55853 -2.02314
					CHANNELS 3 Xrotation Yrotation Zrotation
					End Site
					{
						OFFSET 0.00000 -2.85188 -0.00000
					}
				}
			}
		}
	}
	JOINT LeftUpLeg
	{
		OFFSET 3.52524 0.00000 -1.02984
		CHANNELS 3 Xrotation Yrotation Zrotation
		JOINT LeftLeg
		{
			OFFSET 0.00001 0.00000 -17.80965
			CHANNELS 3 Xrotation Yrotation Zrotation
			JOINT LeftFoot
			{
				OFFSET 0.00001 0.00000 -17.00908
				CHANNELS 3 Xrotation Yrotation Zrotation
				JOINT LeftToeBase
				{
					OFFSET 0.00000 -5.55853 -2.02314
					CHANNELS 3 Xrotation Yrotation Zrotation
					End Site
					{
						OFFSET 0.00000 -2.85188 -0.00000
					}
				}
			}
		}
	}
}
MOTION
Frames: 6
Frame Time: 0.008342
 3.2610 -107.1419 35.9659 -4.1423 5.6503 179.0140 0.9361 2.1354 -0.4260 0.1820 0.6826 -0.0008 4.1723 -0.3964 -1.4590 0.8427 -0.0501 -0.0025 -0.9593 -1.1858 -1.2630 0.0754 1.1146 -0.3394 15.0000 -16.1943 3.3703 28.2513 -42.2074 37.9047 0.0000 0.0000 22.5643 -14.2699 20.2325 -0.1352 0.0000 -0.0000 -0.0000 -0.0000 -0.0000 -0.0000 20.1124 7.6837 -7.1542 27.6013 44.7245 -41.2648 -0.0000 -0.0000 -46.5546 4.3019 -15.2260 -2.3659 -0.0000 0.0000 -0.0000 0.0000 -0.0000 0.0000 -9.4109 10.6723 -14.8407 28.3131 0.0000 0.0000 -20.9914 -0.6982 -6.9799 -1.1329 0.0000 -0.0000 -10.6595 1.9481 10.9464 18.6149 0.0000 0.0000 -12.0420 6.9871 2.0129 0.9197 0.0000 0.0000
 3.2231 -107.1517 35.9688 -4.1226 5.6197 178.9568 0.9523 2.1120 -0.4287 0.1895 0.6636 -0.0034 4.1579 -0.4033 -1.4454 0.8345 -0.0384 -0.0049 -1.0285 -1.1508 -1.2517 -0.0079 1.0946 -0.3711 15.0273 -16.0520 3.4068 27.9858 -42.6316 37.7431 0.0000 0.0000 22.5701 -14.2572 20.2427 -0.2535 0.0000 -0.0000 -0.0000 -0.0000 -0.0000 0.0000 20.1108 7.6506 -7.1745 27.6262 44.6737 -41.4281 -0.0000 -0.0000 -46.2860 4.0577 -15.3920 -2.2986 0.0000 0.0000 -0.0000 0.0000 -0.0000 0.0000 -9.6543 10.6585 -14.6677 28.7050 0.0000 0.0000 -20.8224 -0.4960 -7.3718 -1.3209 0.0000 -0.0000 -10.5847 1.9705 10.9852 18.4736 0.0000 0.0000 -12.0532 6.9546 1.9384 0.8891 0.0000 0.0000
 3.1735 -107.1645 35.9729 -4.1041 5.5990 178.8790 0.9656 2.1027 -0.4326 0.1999 0.6374 -0.0069 4.1414 -0.4101 -1.4261 0.8252 -0.0264 -0.0072 -1.1232 -1.1058 -1.2348 -0.1168 1.0698 -0.4106 15.0642 -15.8737 3.4540 27.6834 -43.1345 37.5661 0.0000 0.0000 22.5661 -14.2864 20.2701 -0.3738 -0.0000 -0.0000 0.0000 -0.0000 -0.0000 0.0000 20.1063 7.6172 -7.1982 27.6500 44.6077 -41.6271 -0.0000 -0.0000 -45.9363 3.7498 -15.6000 -2.2056 -0.0000 0.0000 -0.0000 -0.0000 0.0000 0.0000 -9.9882 10.6598 -14.4353 29.2304 0.0000 0.0000 -20.6196 -0.2609 -7.9236 -1.6414 0.0000 -0.0000 -10.4983 2.0250 11.0310 18.2983 0.0000 0.0000 -12.0599 6.8968 1.8762 0.8395 0.0000 0.0000
 3.1131 -107.1796 35.9782 -4.0779 5.5863 178.7824 0.9856 2.1063 -0.4390 0.2116 0.6051 -0.0121 4.1244 -0.4181 -1.4013 0.8145 -0.0148 -0.0080 -1.2427 -1.0517 -1.2133 -0.2494 1.0404 -0.4569 15.1083 -15.6638 3.5109 27.3582 -43.6991 37.3793 0.0000 0.0000 22.5530 -14.3613 20.3109 -0.4898 0.0000 0.0000 0.0000 0.0000 -0.0000 -0.0000 20.1024 7.5846 -7.2278 27.6635 44.5314 -41.8501 -0.0000 -0.0000 -45.5111 3.3910 -15.8420 -2.0849 -0.0000 -0.0000 -0.0000 -0.0000 0.0000 0.0000 -10.3956 10.6709 -14.1539 29.8752 0.0000 0.0000 -20.3894 -0.0069 -8.6320 -2.0988 0.0000 -0.0000 -10.3926 2.1093 11.0802 18.0937 0.0000 0.0000 -12.0617 6.8112 1.8313 0.7727 0.0000 0.0000
 3.0432 -107.1968 35.9846 -4.0478 5.5859 178.6688 1.0087 2.1240 -0.4481 0.2236 0.5766 -0.0158 4.1087 -0.4338 -1.3736 0.8022 -0.0038 -0.0081 -1.3844 -0.9906 -1.1867 -0.4036 1.0081 -0.5086 15.1588 -15.4301 3.5777 27.0325 -44.2958 37.1953 0.0000 0.0000 22.5301 -14.4902 20.3639 -0.5937 0.0000 0.0000 0.0000 0.0000 -0.0000 -0.0000 20.1025 7.5563 -7.2611 27.6630 44.4443 -42.0896 -0.0000 -0.0000 -45.0190 2.9908 -16.1130 -1.9390 -0.0000 0.0000 -0.0000 -0.0000 0.0000 0.0000 -10.8733 10.6939 -13.8354 30.6249 0.0000 0.0000 -20.1445 0.2500 -9.4790 -2.6824 0.0000 -0.0000 -10.2740 2.2263 11.1302 17.8657 0.0000 0.0000 -12.0558 6.6967 1.8093 0.6916 0.0000 0.0000
 2.9663 -107.2151 35.9919 -4.0127 5.5954 178.5419 1.0347 2.1584 -0.4600 0.2385 0.5420 -0.0204 4.0930 -0.4481 -1.3417 0.7891 0.0041 -0.0068 -1.5452 -0.9252 -1.1570 -0.5754 0.9741 -0.5636 15.2123 -15.1838 3.6517 26.7293 -44.8941 37.0270 0.0000 0.0000 22.4989 -14.6693 20.4226 -0.6809 0.0000 -0.0000 0.0000 -0.0000 -0.0000 -0.0000 20.1035 7.5335 -7.2987 27.6491 44.3503 -42.3324 -0.0000 -0.0000 -44.4740 2.5641 -16.4045 -1.7694 0.0000 -0.0000 -0.0000 0.0000 -0.0000 0.0000 -11.4051 10.7220 -13.4969 31.4519 0.0000 0.0000 -19.8990 0.4959 -10.4339 -3.3673 0.0000 -0.0000 -10.1451 2.3700 11.1791 17.6231 0.0000 0.0000 -12.0416 6.5543 1.8106 0.6021 0.0000 0.0000
